<svg width="109" height="172" viewBox="0 0 109 172" fill="none" xmlns="http://www.w3.org/2000/svg">
<path d="M106 118.809C106 146.473 83.1111 169 54.7512 169C26.3548 169 3 146.438 3 118.809C3 112.04 5.77514 101.38 10.3152 88.876C14.8129 76.4889 20.9035 62.6574 27.2444 49.7078C33.586 36.7567 40.1467 24.7516 45.5669 16.0144C48.2837 11.635 50.6724 8.14445 52.5734 5.77992C53.4662 4.6694 54.1932 3.88082 54.7479 3.3779C55.2977 3.87978 56.0176 4.66569 56.9011 5.77209C58.7882 8.1356 61.1574 11.6253 63.8508 16.0045C69.2242 24.7412 75.7224 36.7461 82.0016 49.6973C88.28 62.6469 94.3086 76.4788 98.7599 88.8666C103.253 101.37 106 112.034 106 118.809ZM55.3908 2.87928C55.3907 2.87957 55.385 2.88269 55.374 2.88773C55.3854 2.8815 55.3909 2.87898 55.3908 2.87928ZM54.124 2.88616C54.1132 2.88119 54.1077 2.87814 54.1076 2.87786C54.1076 2.87759 54.113 2.88007 54.124 2.88616Z" stroke="#BCDF00" stroke-width="6"/>
<path d="M55 39L55 158" stroke="#BCDF00" stroke-width="6" stroke-linecap="round"/>
<path d="M55.03 120.036L85.71 94.2923" stroke="#BCDF00" stroke-width="6" stroke-linecap="round"/>
<path d="M54.935 120.078L24.255 94.3342" stroke="#BCDF00" stroke-width="6" stroke-linecap="round"/>
<path d="M55 69L70.3209 56.1442" stroke="#BCDF00" stroke-width="6" stroke-linecap="round"/>
<path d="M55 69L39.6791 56.1442" stroke="#BCDF00" stroke-width="6" stroke-linecap="round"/>
<path d="M54.2654 0.795177C54.6614 0.366578 55.3386 0.366579 55.7346 0.795177L60.3776 5.82145C60.9693 6.46193 60.515 7.5 59.6431 7.5H50.3569C49.485 7.5 49.0307 6.46193 49.6224 5.82145L54.2654 0.795177Z" fill="#BCDF00"/>
</svg>
