<svg width="109" height="172" viewBox="0 0 109 172" fill="none" xmlns="http://www.w3.org/2000/svg">
<path d="M105 118.809C105 145.903 82.5775 168 54.7512 168C26.8763 168 4 145.855 4 118.809C4 112.232 6.7165 101.717 11.2551 89.2173C15.7373 76.873 21.8123 63.0753 28.1426 50.1475C34.4737 37.2179 41.0184 25.2433 46.4167 16.5415C49.1248 12.1763 51.4888 8.72494 53.3528 6.4065C53.887 5.74195 54.3515 5.20677 54.7454 4.78783C55.1346 5.20463 55.5928 5.73637 56.1196 6.39606C57.9697 8.71314 60.3143 12.1634 62.999 16.5284C68.3506 25.2295 74.8329 37.2037 81.1018 50.1335C87.3696 63.0613 93.3828 76.8595 97.8188 89.2048C102.31 101.704 105 112.224 105 118.809Z" stroke="#BCDF00" stroke-width="8"/>
<path d="M55 39L55 158" stroke="#BCDF00" stroke-width="8" stroke-linecap="round"/>
<path d="M55.03 120.036L85.71 94.2923" stroke="#BCDF00" stroke-width="8" stroke-linecap="round"/>
<path d="M54.935 120.078L24.255 94.3342" stroke="#BCDF00" stroke-width="8" stroke-linecap="round"/>
<path d="M55 69L70.3209 56.1442" stroke="#BCDF00" stroke-width="8" stroke-linecap="round"/>
<path d="M55 69L39.6791 56.1442" stroke="#BCDF00" stroke-width="8" stroke-linecap="round"/>
<path d="M54.2654 0.795177C54.6614 0.366578 55.3386 0.366579 55.7346 0.795177L60.3776 5.82145C60.9693 6.46193 60.515 7.5 59.6431 7.5H50.3569C49.485 7.5 49.0307 6.46193 49.6224 5.82145L54.2654 0.795177Z" fill="#BCDF00"/>
</svg>
