<svg width="43" height="46" viewBox="0 0 43 46" fill="none" xmlns="http://www.w3.org/2000/svg">
<mask id="path-1-inside-1_45_151" fill="white">
<path d="M0 3C0 1.34315 1.34315 0 3 0H30C31.6569 0 33 1.34315 33 3V43C33 44.6569 31.6569 46 30 46H3C1.34314 46 0 44.6569 0 43V3Z"/>
</mask>
<path d="M-2 3C-2 0.238576 0.238576 -2 3 -2H28C30.7614 -2 33 0.238576 33 3C33 2.44772 31.6569 2 30 2H3C2.44772 2 2 2.44772 2 3H-2ZM33 43C33 45.7614 30.7614 48 28 48H3C0.238576 48 -2 45.7614 -2 43H2C2 43.5523 2.44772 44 3 44H30C31.6569 44 33 43.5523 33 43ZM3 48C0.238576 48 -2 45.7614 -2 43V3C-2 0.238576 0.238576 -2 3 -2V2C2.44772 2 2 2.44772 2 3V43C2 43.5523 2.44772 44 3 44V48ZM33 0V46V0Z" fill="black" mask="url(#path-1-inside-1_45_151)"/>
<path d="M42 23C42.5523 23 43 22.5523 43 22C43 21.4477 42.5523 21 42 21V23ZM16.2929 21.2929C15.9024 21.6834 15.9024 22.3166 16.2929 22.7071L22.6569 29.0711C23.0474 29.4616 23.6805 29.4616 24.0711 29.0711C24.4616 28.6805 24.4616 28.0474 24.0711 27.6569L18.4142 22L24.0711 16.3431C24.4616 15.9526 24.4616 15.3195 24.0711 14.9289C23.6805 14.5384 23.0474 14.5384 22.6569 14.9289L16.2929 21.2929ZM42 21L17 21V23L42 23V21Z" fill="black"/>
<path d="M31 18C31 18.5523 31.4477 19 32 19C32.5523 19 33 18.5523 33 18H31ZM31 2V18H33V2H31Z" fill="black"/>
<path d="M33 26C33 25.4477 32.5523 25 32 25C31.4477 25 31 25.4477 31 26H33ZM31 26V44H33V26H31Z" fill="black"/>
</svg>
