<svg width="46" height="47" viewBox="0 0 46 47" fill="none" xmlns="http://www.w3.org/2000/svg">
<path d="M29.2331 37.1524C26.8905 39.6963 24.5558 42.2474 22.4654 44.7413C21.5505 43.7366 20.611 42.7152 19.6603 41.6814C15.8308 37.5176 11.817 33.1533 8.47518 28.8807C6.27576 26.0688 4.39563 23.3308 3.06865 20.7551C1.73676 18.1699 1 15.8202 1 13.7671C1 9.4966 3.12012 4.96376 6.73084 2.62684C10.2478 0.350604 15.4249 0.0110978 21.9245 4.58488L22.4799 4.97574L23.048 4.60354C30.0634 0.00728672 35.5088 0.346465 39.1561 2.63444C42.883 4.97233 45 9.49954 45 13.7671C45 15.7933 44.1884 18.0966 42.7264 20.6451C41.2707 23.1825 39.2218 25.8754 36.8618 28.6632C34.6799 31.2406 32.2572 33.8701 29.8238 36.5112C29.6269 36.7249 29.43 36.9386 29.2331 37.1524Z" fill="#E52E6B" stroke="#E52E6B" stroke-width="2"/>
</svg>
