<svg width="46" height="47" viewBox="0 0 46 47" fill="none" xmlns="http://www.w3.org/2000/svg">
<path d="M29.2331 37.8853C26.8905 40.4292 24.5558 42.9803 22.4654 45.4742C21.5505 44.4696 20.611 43.4481 19.6603 42.4143C15.8308 38.2505 11.817 33.8862 8.47518 29.6137C6.27576 26.8017 4.39563 24.0637 3.06865 21.488C1.73676 18.9028 1 16.5531 1 14.5C1 10.2295 3.12012 5.69667 6.73084 3.35975C10.2478 1.08351 15.4249 0.744008 21.9245 5.31779L22.4799 5.70865L23.048 5.33645C30.0634 0.740197 35.5088 1.07937 39.1561 3.36735C42.883 5.70524 45 10.2325 45 14.5C45 16.5262 44.1884 18.8295 42.7264 21.378C41.2707 23.9154 39.2218 26.6084 36.8618 29.3961C34.6799 31.9735 32.2572 34.603 29.8238 37.2441C29.6269 37.4578 29.43 37.6715 29.2331 37.8853Z" stroke="black" stroke-width="2"/>
</svg>
