<svg width="49" height="49" viewBox="0 0 49 49" fill="none" xmlns="http://www.w3.org/2000/svg">
<path d="M14.1501 2L23.1501 11" stroke="black" stroke-width="2" stroke-linecap="round"/>
<path d="M13.8816 1.74518L6.15012 10" stroke="black" stroke-width="2" stroke-linecap="round"/>
<path d="M23.1501 11L18.1501 16" stroke="black" stroke-width="2" stroke-linecap="round"/>
<path d="M18.1501 16V16C20.071 21.7626 24.2023 26.5261 29.6354 29.2426L31.1501 30" stroke="black" stroke-width="2" stroke-linecap="round"/>
<path d="M6.15009 10V10C11.1653 23.3549 20.8352 34.4492 33.3802 41.2409L36.9583 43.1781" stroke="black" stroke-width="2" stroke-linecap="round"/>
<path d="M36.1501 25L45.1501 34" stroke="black" stroke-width="2" stroke-linecap="round"/>
<path d="M36.1501 25L31.1501 30" stroke="black" stroke-width="2" stroke-linecap="round"/>
<path d="M45.1035 33.9576L37.1501 43" stroke="black" stroke-width="2" stroke-linecap="round"/>
<path d="M30.1501 9V9C34.7616 9.92231 38.4813 13.326 39.8082 17.8377L40.1501 19" stroke="black" stroke-width="2" stroke-linecap="round"/>
<path d="M33.1501 3V3C38.6725 4.72587 43.1249 8.84544 45.2737 14.2174L45.878 15.7279" stroke="black" stroke-width="2" stroke-linecap="round"/>
</svg>
